<svg xmlns="http://www.w3.org/2000/svg" width="512.000000pt" height="512.000000pt" viewBox="0 0 512.000000 512.000000" preserveAspectRatio="xMidYMid meet" style="width: 30px;height: 30px;"><g transform="translate(0.000000,512.000000) scale(0.100000,-0.100000)" fill="#ffffff" stroke="none"><path d="M2375 4734 c-229 -24 -432 -71 -613 -140 -1195 -460 -1740 -1831 -1181 -2974 207 -425 529 -757 949 -978 123 -65 318 -142 359 -142 39 0 87 23 101 49 6 12 10 108 10 242 l0 221 -27 -6 c-16 -4 -89 -10 -163 -13 -117 -5 -147 -3 -219 16 -156 39 -263 127 -328 269 -71 153 -139 240 -245 313 -87 60 -101 100 -42 119 116 39 305 -66 399 -220 49 -81 150 -173 222 -201 84 -34 238 -34 341 0 53 17 72 28 72 41 0 43 44 155 84 213 l43 62 -109 18 c-492 80 -757 313 -849 748 -32 150 -32 419 -1 533 29 104 81 210 143 293 l51 66 -16 64 c-36 142 -30 300 18 443 l21 65 58 3 c108 6 309 -69 476 -178 l64 -41 131 25 c150 30 301 46 421 46 120 0 271 -16 421 -46 l131 -25 64 41 c167 109 368 184 476 178 l58 -3 21 -65 c48 -143 54 -301 18 -443 l-16 -64 51 -66 c62 -83 114 -189 143 -293 31 -114 31 -382 -1 -533 -43 -206 -112 -341 -236 -467 -149 -151 -358 -244 -642 -284 -46 -7 -83 -15 -83 -17 0 -3 14 -21 31 -41 18 -20 43 -59 56 -88 46 -100 53 -178 53 -556 0 -220 4 -356 10 -369 14 -26 62 -49 101 -49 18 0 84 21 148 46 503 199 913 574 1149 1049 105 211 162 386 204 624 29 170 32 500 5 666 -62 373 -197 695 -414 983 -206 275 -472 493 -788 647 -216 105 -405 165 -635 200 -102 15 -414 27 -495 19z"></path><path d="M1143 1653 c-20 -7 -15 -31 7 -38 21 -7 40 0 40 15 0 13 -32 28 -47 23z"></path><path d="M1220 1562 c0 -23 19 -42 42 -42 21 0 24 30 6 48 -18 18 -48 15 -48 -6z"></path><path d="M1306 1455 c-8 -21 3 -44 25 -56 24 -12 39 -4 39 21 0 38 -52 66 -64 35z"></path><path d="M1417 1343 c-12 -12 -7 -50 7 -63 18 -14 58 -10 63 7 3 7 -7 24 -21 38 -26 26 -38 30 -49 18z"></path><path d="M1554 1235 c-8 -19 3 -34 32 -45 44 -17 73 17 42 48 -17 17 -67 15 -74 -3z"></path><path d="M1904 1225 c-10 -24 4 -45 29 -45 33 0 62 23 54 44 -8 21 -75 22 -83 1z"></path><path d="M1737 1214 c-14 -15 -6 -43 14 -49 36 -12 71 3 67 28 -2 17 -11 23 -38 25 -20 2 -39 0 -43 -4z"></path></g></svg>